<svg id="visual" viewBox="0 0 960 540" width="960" height="540" xmlns="http://www.w3.org/2000/svg" xmlns:xlink="http://www.w3.org/1999/xlink" version="1.1"><path d="M0 502L32 486C64 470 128 438 192 410C256 382 320 358 384 341.2C448 324.3 512 314.7 576 312.8C640 311 704 317 768 337C832 357 896 391 928 408L960 425L960 541L928 541C896 541 832 541 768 541C704 541 640 541 576 541C512 541 448 541 384 541C320 541 256 541 192 541C128 541 64 541 32 541L0 541Z" fill="#1c1c1c" stroke-linecap="round" stroke-linejoin="miter"></path></svg>